<svg id="Layer_1" enable-background="new 0 0 512 512" height="512" viewBox="0 0 512 512" width="512" xmlns="http://www.w3.org/2000/svg"><g><path d="m502.558 194.167c-12.066-38.696-77.041-51.378-145.126-28.325-10.004 3.387-19.516 7.359-28.43 11.791-2.149 1.069-4.607-.675-4.304-3.056 1.306-10.26 2-20.976 2-32.004 0-74.598-31.652-135.073-70.698-135.073s-70.698 60.475-70.698 135.074c0 11.027.694 21.744 2 32.004.303 2.381-2.155 4.125-4.304 3.056-8.914-4.432-18.426-8.404-28.43-11.791-68.085-23.053-133.06-10.372-145.126 28.324s33.347 88.753 101.432 111.805c10.077 3.412 20.086 6.038 29.865 7.915 2.305.442 3.23 3.222 1.646 4.956-6.88 7.53-13.521 15.813-19.772 24.778-42.079 60.352-50.583 128.664-18.995 152.58s91.308-5.622 133.387-65.974c6.178-8.861 11.63-17.894 16.339-26.933 1.124-2.156 4.188-2.156 5.312 0 4.709 9.039 10.161 18.071 16.339 26.933 42.079 60.352 101.798 89.89 133.387 65.974s23.084-92.228-18.995-152.58c-6.251-8.966-12.892-17.248-19.772-24.778-1.583-1.733-.659-4.513 1.646-4.956 9.779-1.877 19.788-4.503 29.865-7.915 68.085-23.052 113.498-73.109 101.432-111.805z" fill="#5f99d7"/><g fill="#3c87d0"><path d="m296.698 142.574c0 11.027-.565 11.402-.694 21.744-.178 14.257 21.642 16.572 32.075 13.601-1.867.271-3.641-1.298-3.381-3.342 1.306-10.26 2-20.976 2-32.003 0-74.599-31.652-135.074-70.698-135.074-5.148 0-10.165 1.061-15 3.057 31.839 13.144 55.698 67.253 55.698 132.017z"/><path d="m228.656 403.294c-6.447 5.808-15.472 18.072-21.65 26.933-27.128 38.909-61.587 65.004-91.114 72.231 33.154 10.258 83.995-18.993 121.114-72.231 6.178-8.861 11.63-17.894 16.339-26.933-6.179-8.861-18.242-5.807-24.689 0z"/><path d="m371.261 313.888c9.779-1.877 19.788-4.503 29.865-7.915 68.085-23.052 113.498-73.109 101.432-111.805s-77.041-51.378-145.126-28.325c-10.004 3.387-19.516 7.359-28.43 11.791 68.085-23.052 131.49-22.162 143.556 16.534s-33.347 88.753-101.432 111.805c-10.077 3.412-20.086 6.038-29.865 7.915-2.305.442-3.23 3.222-1.646 4.956 6.88 7.53 13.521 15.813 19.772 24.778 42.079 60.352 50.583 128.664 18.995 152.58-4.595 3.479-9.611 5.246-14.953 5.558 17.329 4.859 33.116 3.403 44.953-5.558 31.589-23.916 23.084-92.228-18.995-152.58-6.251-8.966-12.892-17.248-19.772-24.778-1.584-1.734-.659-4.514 1.646-4.956z"/></g><path d="m336 274c0 10.169-11.643 17.95-15.309 26.793-3.801 9.167-1.214 22.867-8.122 29.776-6.908 6.908-20.608 4.321-29.775 8.122-8.844 3.666-16.625 15.309-26.794 15.309s-17.95-11.643-26.793-15.309c-9.167-3.801-22.867-1.214-29.776-8.122-6.908-6.908-4.321-20.608-8.122-29.775-3.666-8.844-15.309-16.625-15.309-26.794s11.643-17.95 15.309-26.793c3.801-9.167 1.214-22.867 8.122-29.776 6.908-6.908 20.609-4.321 29.775-8.122 8.844-3.667 16.625-15.309 26.794-15.309s17.95 11.643 26.793 15.309c9.167 3.801 22.867 1.214 29.776 8.122 6.908 6.908 4.321 20.608 8.122 29.775 3.667 8.844 15.309 16.625 15.309 26.794z" fill="#f3f0f3"/><circle cx="256" cy="274" fill="#ffd15b" r="43"/><path d="m256 231c-5.277 0-10.329.955-15 2.694 16.351 6.088 28 21.834 28 40.306s-11.649 34.218-28 40.306c4.671 1.739 9.723 2.694 15 2.694 23.748 0 43-19.252 43-43s-19.252-43-43-43z" fill="#ffc344"/><g><path d="m509.699 191.938c-4.372-14.023-14.846-25.592-30.29-33.459-30.448-15.508-78.111-15.408-124.39.262-7.504 2.541-14.87 5.449-21.989 8.677.772-8.173 1.162-16.496 1.162-24.842 0-27.568-4.226-54.268-12.22-77.218-1.363-3.911-5.639-5.98-9.549-4.614-3.911 1.362-5.978 5.638-4.615 9.55 7.448 21.38 11.385 46.376 11.385 72.282 0 10.492-.653 20.942-1.94 31.058-.49 3.85 1.168 7.636 4.326 9.88 3.159 2.245 7.28 2.567 10.757.839 8.752-4.353 18.002-8.19 27.494-11.404 42.585-14.418 85.797-14.84 112.773-1.103 11.928 6.075 19.591 14.337 22.778 24.557 5.012 16.074-1.754 35.429-19.052 54.498-18.314 20.189-45.879 37.226-77.618 47.973-9.554 3.234-19.268 5.81-28.871 7.653-3.73.716-6.79 3.397-7.985 6.997-1.195 3.599-.347 7.577 2.216 10.383 6.773 7.414 13.218 15.491 19.156 24.01 39.061 56.027 48.503 121.198 20.618 142.312-7.894 5.978-18.136 8.022-30.442 6.074-29.954-4.74-65.305-31.701-92.256-70.358-5.873-8.424-11.202-17.208-15.838-26.109-1.816-3.486-5.382-5.653-9.307-5.653s-7.491 2.167-9.306 5.652c-4.637 8.901-9.966 17.686-15.839 26.11-26.951 38.658-62.302 65.618-92.256 70.358-12.306 1.946-22.547-.097-30.442-6.074-6.037-4.571-10.459-11.3-13.144-19.999-1.222-3.958-5.421-6.178-9.377-4.954-3.958 1.221-6.176 5.42-4.955 9.378 3.63 11.763 9.828 21.028 18.421 27.535 11.114 8.415 25.581 11.503 41.84 8.931 33.845-5.357 73.012-34.706 102.216-76.596 4.616-6.621 8.918-13.455 12.841-20.399 3.924 6.943 8.225 13.778 12.841 20.399 29.204 41.89 68.371 71.239 102.216 76.596 3.72.589 7.345.881 10.859.881 11.842 0 22.41-3.321 30.981-9.812 17.501-13.251 24.974-37.945 21.042-69.533-3.735-30.006-17.376-63.146-38.41-93.317-4.783-6.861-9.881-13.459-15.208-19.689 7.754-1.771 15.528-3.971 23.199-6.568 34.115-11.552 63.917-30.055 83.916-52.101 21.014-23.168 28.921-47.688 22.262-69.043z"/><path d="m85.046 445.406c3.835-.001 7.106-2.928 7.46-6.822 2.568-28.242 15.787-61.289 36.269-90.667 5.938-8.517 12.383-16.595 19.157-24.01 2.561-2.805 3.41-6.783 2.215-10.382-1.195-3.601-4.255-6.281-7.985-6.997-9.604-1.844-19.318-4.419-28.871-7.653-31.739-10.747-59.304-27.785-77.617-47.973-17.299-19.069-24.065-38.423-19.053-54.498 3.186-10.22 10.85-18.482 22.778-24.557 26.976-13.738 70.188-13.316 112.772 1.103 9.492 3.215 18.742 7.052 27.495 11.404 3.475 1.728 7.597 1.406 10.756-.839 3.158-2.244 4.816-6.03 4.326-9.881-1.287-10.115-1.94-20.565-1.94-31.057-.002-69.155 28.938-127.577 63.192-127.577 16.907 0 29.682 13.865 37.423 25.496 2.295 3.448 6.951 4.383 10.398 2.089 3.448-2.295 4.383-6.951 2.088-10.4-13.812-20.754-31.536-32.185-49.909-32.185-21.81 0-41.922 15.479-56.632 43.585-13.904 26.566-21.561 61.722-21.561 98.991 0 8.346.39 16.669 1.162 24.842-7.118-3.228-14.485-6.136-21.989-8.677-46.277-15.67-93.941-15.772-124.389-.262-15.444 7.865-25.918 19.436-30.291 33.459-6.658 21.356 1.248 45.876 22.263 69.042 19.999 22.046 49.801 40.549 83.916 52.101 7.671 2.598 15.445 4.798 23.199 6.568-5.328 6.23-10.425 12.827-15.208 19.688-22.249 31.914-36.065 66.678-38.903 97.889-.375 4.125 2.665 7.773 6.79 8.148.232.021.461.032.689.032z"/><path d="m285.664 202.385c-2.486-1.031-5.326-3.327-8.333-5.759-5.868-4.745-12.52-10.123-21.331-10.123-8.812 0-15.463 5.378-21.332 10.124-3.007 2.431-5.846 4.727-8.331 5.758-2.704 1.121-6.482 1.545-10.481 1.993-7.375.827-15.735 1.766-21.723 7.753-5.987 5.988-6.925 14.348-7.752 21.724-.449 4-.872 7.778-1.993 10.483-1.031 2.486-3.327 5.326-5.758 8.333-4.745 5.868-10.123 12.521-10.123 21.333s5.378 15.465 10.123 21.333c2.431 3.007 4.727 5.847 5.757 8.332 1.121 2.705 1.545 6.483 1.993 10.483.827 7.376 1.765 15.737 7.752 21.725 5.987 5.987 14.347 6.926 21.723 7.753 4 .448 7.777.872 10.481 1.993 2.486 1.031 5.326 3.327 8.333 5.759 5.868 4.745 12.52 10.123 21.331 10.123 8.812 0 15.463-5.378 21.332-10.124 3.007-2.431 5.846-4.727 8.331-5.758 2.704-1.121 6.482-1.545 10.481-1.993 7.375-.827 15.735-1.766 21.723-7.753 5.987-5.988 6.925-14.348 7.752-21.724.449-4 .872-7.778 1.993-10.483 1.031-2.486 3.327-5.326 5.758-8.333 4.745-5.868 10.123-12.521 10.123-21.333s-5.378-15.465-10.123-21.333c-2.431-3.007-4.727-5.847-5.757-8.332-1.121-2.705-1.545-6.483-1.993-10.483-.827-7.376-1.765-15.737-7.752-21.725-5.987-5.987-14.347-6.926-21.723-7.753-4-.448-7.777-.872-10.481-1.993zm25.05 33.143c.545 4.861 1.109 9.889 3.044 14.556 1.86 4.486 4.956 8.316 7.949 12.018 3.491 4.317 6.788 8.396 6.788 11.903s-3.297 7.585-6.788 11.903c-2.993 3.702-6.088 7.531-7.949 12.018-1.935 4.667-2.499 9.694-3.045 14.557-.58 5.169-1.179 10.515-3.452 12.788-2.274 2.274-7.619 2.874-12.789 3.454-4.861.545-9.888 1.108-14.555 3.044-4.486 1.86-8.314 4.956-12.017 7.949-4.317 3.491-8.394 6.788-11.901 6.788s-7.584-3.297-11.901-6.788c-3.702-2.993-7.531-6.089-12.018-7.949-4.666-1.936-9.693-2.499-14.554-3.044-5.17-.58-10.515-1.18-12.789-3.454-2.273-2.273-2.873-7.619-3.452-12.789-.545-4.861-1.109-9.889-3.044-14.556-1.86-4.486-4.956-8.316-7.949-12.018-3.491-4.317-6.788-8.396-6.788-11.903s3.297-7.585 6.788-11.903c2.993-3.702 6.088-7.531 7.949-12.018 1.935-4.667 2.499-9.694 3.045-14.557.58-5.169 1.179-10.515 3.452-12.788 2.274-2.274 7.619-2.874 12.789-3.454 4.861-.545 9.888-1.108 14.555-3.044 4.486-1.86 8.314-4.956 12.017-7.949 4.317-3.491 8.394-6.788 11.901-6.788s7.584 3.297 11.901 6.788c3.702 2.993 7.531 6.089 12.018 7.949 4.666 1.936 9.693 2.499 14.554 3.044 5.17.58 10.515 1.18 12.789 3.454 2.273 2.273 2.873 7.619 3.452 12.789z"/><path d="m256 223.503c-27.844 0-50.496 22.655-50.496 50.501s22.653 50.501 50.496 50.501c8.433 0 16.781-2.122 24.143-6.137 3.636-1.983 4.977-6.539 2.993-10.176-1.983-3.636-6.537-4.976-10.175-2.994-5.166 2.817-11.031 4.307-16.962 4.307-19.573 0-35.497-15.925-35.497-35.501s15.924-35.501 35.497-35.501 35.497 15.925 35.497 35.501c0 3.01-.376 5.997-1.118 8.879-1.033 4.011 1.382 8.1 5.393 9.133 4.009 1.029 8.1-1.383 9.132-5.395 1.056-4.102 1.591-8.347 1.591-12.617.002-27.846-22.65-50.501-50.494-50.501z"/></g></g></svg>